<svg xmlns="http://www.w3.org/2000/svg" viewBox="257 0 1529 514">
  <path d="M471.0,21.5 C479.7,21.3 488.5,21.6 497.0,23.5 C503.4,25.0 509.7,27.7 515.0,31.5 C520.4,35.3 525.0,40.4 528.5,46.0 C532.6,52.4 535.4,59.7 537.5,67.0 C540.1,76.1 541.6,85.6 542.5,95.0 C546.9,141.6 549.3,188.4 553.5,235.0 C554.9,250.7 556.9,266.4 559.5,282.0 C562.9,302.8 568.2,323.2 571.5,344.0 C572.6,350.9 572.9,358.0 572.5,365.0 C571.9,375.4 571.2,385.9 568.5,396.0 C565.2,408.1 560.4,419.9 554.5,431.0 C549.7,440.1 543.4,448.4 536.5,456.0 C529.2,464.0 520.9,471.2 512.0,477.5 C502.6,484.1 492.5,489.8 482.0,494.5 C471.1,499.5 459.6,503.5 448.0,506.5 C435.2,509.8 422.2,512.5 409.0,513.5 C392.4,514.8 375.6,514.6 359.0,513.5 C350.2,512.9 341.6,510.7 333.0,508.5 C327.2,507.0 321.5,505.0 316.0,502.5 C309.8,499.6 303.5,496.6 298.0,492.5 C289.9,486.4 282.5,479.3 275.5,472.0 C273.0,469.4 271.2,466.2 269.5,463.0 C266.8,457.8 264.2,452.6 262.5,447.0 C260.2,439.2 258.5,431.1 257.5,423.0 C256.5,414.4 256.1,405.7 256.5,397.0 C256.8,390.6 257.7,384.1 259.5,378.0 C261.7,370.7 265.0,363.8 268.5,357.0 C270.7,352.7 273.4,348.7 276.5,345.0 C280.6,340.1 284.8,335.2 290.0,331.5 C296.1,327.2 302.9,323.9 310.0,321.5 C314.1,320.1 318.7,320.0 323.0,320.5 C327.5,321.0 332.3,321.9 336.0,324.5 C351.2,335.1 363.2,350.0 379.0,359.5 C383.3,362.1 389.3,361.1 394.0,359.5 C397.4,358.4 399.6,355.0 401.5,352.0 C404.1,348.0 406.2,343.6 407.5,339.0 C409.5,331.8 411.0,324.4 411.5,317.0 C412.7,298.0 413.3,279.0 412.5,260.0 C411.6,238.3 409.0,216.6 406.5,195.0 C403.4,168.3 397.6,141.8 395.5,115.0 C394.3,100.0 394.3,84.8 396.5,70.0 C397.7,61.9 401.0,53.9 405.5,47.0 C409.4,41.1 414.9,36.1 421.0,32.5 C428.0,28.4 436.1,26.2 444.0,24.5 C452.8,22.6 461.9,21.7 471.0,21.5Z" fill="#231f20" fill-rule="evenodd"/>
  <path d="M886.0,-0.5 C897.7,-0.5 909.6,-0.0 921.0,2.5 C927.8,4.0 934.2,7.5 940.0,11.5 C944.3,14.5 947.5,18.8 950.5,23.0 C953.1,26.7 955.0,30.8 956.5,35.0 C958.7,41.2 961.1,47.5 961.5,54.0 C964.8,112.6 964.7,171.4 967.5,230.0 C968.4,248.1 970.2,266.1 972.5,284.0 C975.2,305.4 980.8,326.5 982.5,348.0 C983.5,361.0 982.8,374.2 980.5,387.0 C978.4,398.4 974.3,409.4 969.5,420.0 C966.2,427.2 961.5,433.8 956.5,440.0 C952.2,445.3 947.2,450.0 942.0,454.5 C937.7,458.2 933.0,461.6 928.0,464.5 C920.9,468.6 913.7,472.8 906.0,475.5 C892.6,480.2 878.9,483.8 865.0,486.5 C849.2,489.5 833.1,491.5 817.0,492.5 C796.7,493.8 776.3,494.4 756.0,493.5 C737.2,492.7 718.5,490.9 700.0,487.5 C687.7,485.2 675.7,481.1 664.0,476.5 C656.2,473.4 648.7,469.5 642.0,464.5 C633.5,458.2 625.2,451.2 618.5,443.0 C611.6,434.5 605.8,425.0 601.5,415.0 C597.1,404.8 594.2,393.9 592.5,383.0 C590.5,370.5 590.0,357.7 590.5,345.0 C591.3,322.9 595.6,301.1 596.5,279.0 C597.6,254.4 597.2,229.7 596.5,205.0 C595.2,163.0 591.7,121.0 590.5,79.0 C590.3,72.3 591.4,65.6 592.5,59.0 C593.4,53.9 594.4,48.7 596.5,44.0 C599.4,37.6 603.1,31.5 607.5,26.0 C610.0,22.9 613.5,20.5 617.0,18.5 C621.4,16.0 626.1,13.9 631.0,12.5 C637.9,10.5 644.9,9.0 652.0,8.5 C663.0,7.7 674.0,8.0 685.0,8.5 C688.7,8.7 692.4,9.4 696.0,10.5 C700.1,11.8 704.4,13.1 708.0,15.5 C713.0,18.7 718.0,22.2 721.5,27.0 C726.3,33.6 730.0,41.2 732.5,49.0 C735.3,57.7 736.9,66.9 737.5,76.0 C740.5,119.3 740.4,162.7 743.5,206.0 C745.4,232.1 748.7,258.1 752.5,284.0 C753.4,289.8 755.4,295.5 757.5,301.0 C758.7,304.2 760.1,307.5 762.5,310.0 C766.1,313.8 770.1,317.6 775.0,319.5 C779.3,321.2 784.4,321.1 789.0,320.5 C792.6,320.1 796.1,318.6 799.0,316.5 C802.4,314.0 805.3,310.6 807.5,307.0 C809.9,303.0 811.3,298.5 812.5,294.0 C814.3,287.1 815.7,280.1 816.5,273.0 C817.7,263.4 818.5,253.7 818.5,244.0 C818.5,185.0 815.9,126.0 816.5,67.0 C816.6,58.6 818.0,50.1 820.5,42.0 C822.8,34.6 826.1,27.4 830.5,21.0 C833.7,16.3 838.2,12.4 843.0,9.5 C848.5,6.2 854.7,4.0 861.0,2.5 C869.2,0.6 877.6,-0.5 886.0,-0.5Z" fill="#231f20" fill-rule="evenodd"/>
  <path d="M1176.0,2.5 C1188.0,1.7 1200.0,1.8 1212.0,2.5 C1223.4,3.2 1234.8,4.4 1246.0,6.5 C1258.5,8.8 1270.9,11.8 1283.0,15.5 C1291.6,18.1 1300.0,21.5 1308.0,25.5 C1317.4,30.2 1326.4,35.5 1335.0,41.5 C1341.0,45.7 1346.7,50.5 1351.5,56.0 C1357.6,63.1 1363.4,70.6 1367.5,79.0 C1370.8,85.8 1372.3,93.5 1373.5,101.0 C1374.3,105.9 1374.0,111.0 1373.5,116.0 C1373.0,121.1 1372.1,126.1 1370.5,131.0 C1368.7,136.5 1366.3,141.9 1363.5,147.0 C1361.6,150.6 1359.3,154.1 1356.5,157.0 C1351.8,161.9 1346.6,166.6 1341.0,170.5 C1336.7,173.5 1331.9,175.9 1327.0,177.5 C1320.9,179.5 1314.5,181.2 1308.0,181.5 C1297.3,181.9 1286.6,180.8 1276.0,179.5 C1272.5,179.1 1269.1,178.0 1266.0,176.5 C1260.7,174.0 1255.6,171.1 1251.0,167.5 C1247.3,164.6 1244.3,160.8 1241.5,157.0 C1239.7,154.6 1238.2,151.9 1237.5,149.0 C1235.2,139.1 1234.5,128.9 1232.5,119.0 C1232.2,117.5 1231.6,116.1 1230.5,115.0 C1227.6,112.1 1224.8,108.8 1221.0,107.5 C1215.9,105.8 1210.3,106.0 1205.0,106.5 C1200.5,107.0 1196.1,108.6 1192.0,110.5 C1188.7,112.0 1185.6,114.0 1183.0,116.5 C1179.4,119.9 1175.2,123.3 1173.5,128.0 C1171.8,132.7 1172.6,138.1 1173.5,143.0 C1173.9,145.4 1175.8,147.3 1177.5,149.0 C1180.0,151.5 1182.8,153.9 1186.0,155.5 C1194.7,160.1 1203.8,164.0 1213.0,167.5 C1235.2,176.0 1258.0,182.6 1280.0,191.5 C1288.7,195.0 1297.0,199.5 1305.0,204.5 C1313.1,209.6 1320.8,215.3 1328.0,221.5 C1333.3,226.1 1338.0,231.5 1342.5,237.0 C1346.6,242.0 1350.4,247.3 1353.5,253.0 C1357.5,260.4 1361.0,268.0 1363.5,276.0 C1365.7,283.1 1367.1,290.6 1367.5,298.0 C1368.1,311.3 1368.1,324.8 1366.5,338.0 C1365.1,349.6 1362.5,361.1 1358.5,372.0 C1354.4,383.2 1348.8,393.9 1342.5,404.0 C1337.1,412.7 1330.6,420.7 1323.5,428.0 C1315.4,436.3 1306.6,444.0 1297.0,450.5 C1286.6,457.6 1275.5,463.6 1264.0,468.5 C1252.8,473.3 1240.9,476.8 1229.0,479.5 C1217.5,482.1 1205.8,483.7 1194.0,484.5 C1182.4,485.3 1170.6,485.4 1159.0,484.5 C1145.2,483.4 1131.5,481.5 1118.0,478.5 C1107.4,476.1 1096.9,472.9 1087.0,468.5 C1075.1,463.2 1063.5,457.1 1053.0,449.5 C1043.2,442.5 1034.6,433.9 1026.5,425.0 C1021.0,419.0 1016.4,412.2 1012.5,405.0 C1007.3,395.4 1002.4,385.5 999.5,375.0 C996.0,362.0 994.6,348.4 993.5,335.0 C992.9,327.4 993.7,319.6 994.5,312.0 C995.0,307.3 995.7,302.4 997.5,298.0 C1001.1,289.3 1004.6,280.3 1010.5,273.0 C1015.0,267.4 1021.4,263.2 1028.0,260.5 C1038.2,256.3 1049.1,253.6 1060.0,252.5 C1072.3,251.3 1084.9,251.3 1097.0,253.5 C1107.2,255.3 1116.9,259.6 1126.0,264.5 C1132.3,267.9 1137.8,272.6 1142.5,278.0 C1149.1,285.6 1153.3,295.0 1159.5,303.0 C1162.5,306.9 1166.1,310.4 1170.0,313.5 C1172.3,315.3 1175.2,316.5 1178.0,317.5 C1180.6,318.5 1183.3,319.4 1186.0,319.5 C1190.3,319.7 1194.8,319.4 1199.0,318.5 C1202.5,317.7 1205.9,316.4 1209.0,314.5 C1211.2,313.1 1212.9,311.0 1214.5,309.0 C1215.4,307.8 1216.4,306.5 1216.5,305.0 C1216.7,301.7 1217.2,297.9 1215.5,295.0 C1212.4,289.7 1208.1,284.9 1203.0,281.5 C1195.7,276.6 1187.2,273.6 1179.0,270.5 C1152.5,260.6 1125.0,253.6 1099.0,242.5 C1084.8,236.5 1071.6,228.3 1059.0,219.5 C1051.3,214.1 1044.8,207.0 1038.5,200.0 C1034.6,195.8 1031.4,191.0 1028.5,186.0 C1025.4,180.6 1022.5,174.9 1020.5,169.0 C1018.5,163.2 1017.2,157.1 1016.5,151.0 C1015.5,142.4 1014.8,133.6 1015.5,125.0 C1016.4,114.2 1018.0,103.3 1021.5,93.0 C1024.7,83.7 1029.9,75.1 1035.5,67.0 C1040.8,59.5 1047.2,52.7 1054.0,46.5 C1060.7,40.4 1068.2,35.1 1076.0,30.5 C1084.6,25.4 1093.6,21.0 1103.0,17.5 C1114.4,13.3 1126.1,9.9 1138.0,7.5 C1150.5,4.9 1163.3,3.4 1176.0,2.5Z" fill="#231f20" fill-rule="evenodd"/>
  <path d="M1467.0,18.5 C1481.6,17.6 1496.4,18.6 1511.0,19.5 C1538.0,21.2 1565.0,24.0 1592.0,26.5 C1618.0,29.0 1644.1,31.3 1670.0,34.5 C1682.4,36.0 1694.8,37.8 1707.0,40.5 C1717.5,42.8 1728.0,45.6 1738.0,49.5 C1746.1,52.6 1753.9,56.6 1761.0,61.5 C1766.8,65.5 1772.2,70.4 1776.5,76.0 C1780.5,81.4 1783.9,87.5 1785.5,94.0 C1787.0,100.2 1786.5,106.7 1785.5,113.0 C1784.4,119.9 1782.2,126.6 1779.5,133.0 C1776.5,140.0 1773.2,147.0 1768.5,153.0 C1763.9,159.0 1758.1,164.1 1752.0,168.5 C1749.4,170.4 1746.2,171.4 1743.0,171.5 C1738.3,171.7 1733.2,171.6 1729.0,169.5 C1719.2,164.5 1711.6,155.9 1702.0,150.5 C1696.1,147.2 1689.5,145.3 1683.0,143.5 C1680.7,142.9 1678.3,143.0 1676.0,143.5 C1672.5,144.3 1669.0,145.5 1666.0,147.5 C1662.7,149.7 1659.9,152.8 1657.5,156.0 C1655.0,159.4 1652.8,163.0 1651.5,167.0 C1649.1,174.5 1647.2,182.2 1646.5,190.0 C1643.8,220.6 1642.4,251.3 1641.5,282.0 C1640.7,310.7 1640.8,339.3 1641.5,368.0 C1641.8,379.7 1644.4,391.3 1644.5,403.0 C1644.7,420.0 1644.2,437.1 1642.5,454.0 C1641.8,460.5 1639.9,466.9 1637.5,473.0 C1635.2,478.7 1632.4,484.3 1628.5,489.0 C1624.8,493.6 1620.0,497.3 1615.0,500.5 C1610.7,503.2 1606.0,505.4 1601.0,506.5 C1591.8,508.5 1582.4,509.1 1573.0,509.5 C1565.7,509.8 1558.3,509.4 1551.0,508.5 C1536.9,506.7 1522.6,505.5 1509.0,501.5 C1499.7,498.8 1491.1,493.8 1483.0,488.5 C1479.4,486.2 1476.8,482.6 1474.5,479.0 C1471.6,474.3 1469.1,469.3 1467.5,464.0 C1465.8,458.5 1464.7,452.7 1464.5,447.0 C1464.1,436.7 1463.8,426.2 1465.5,416.0 C1470.1,388.7 1478.0,362.1 1483.5,335.0 C1487.0,318.1 1490.0,301.1 1492.5,284.0 C1497.0,253.1 1501.2,222.1 1504.5,191.0 C1505.5,181.4 1505.7,171.7 1505.5,162.0 C1505.4,157.9 1504.9,153.8 1503.5,150.0 C1501.5,144.4 1499.1,138.8 1495.5,134.0 C1493.1,130.8 1489.4,128.6 1486.0,126.5 C1484.2,125.4 1482.1,124.6 1480.0,124.5 C1474.0,124.2 1467.7,123.7 1462.0,125.5 C1450.5,129.1 1440.4,136.5 1429.0,140.5 C1425.2,141.8 1421.0,141.7 1417.0,141.5 C1414.6,141.4 1412.1,140.7 1410.0,139.5 C1406.1,137.2 1402.6,134.3 1399.5,131.0 C1396.7,128.0 1394.3,124.6 1392.5,121.0 C1389.3,114.6 1386.5,107.9 1384.5,101.0 C1382.9,95.5 1382.0,89.7 1381.5,84.0 C1381.0,77.7 1381.0,71.3 1381.5,65.0 C1381.7,62.6 1382.6,60.3 1383.5,58.0 C1384.6,55.2 1385.7,52.4 1387.5,50.0 C1390.6,45.8 1393.7,41.4 1398.0,38.5 C1406.4,32.8 1415.3,27.3 1425.0,24.5 C1438.6,20.6 1452.9,19.3 1467.0,18.5Z" fill="#231f20" fill-rule="evenodd"/>
</svg>
