<svg xmlns="http://www.w3.org/2000/svg" viewBox="972 518 347 487">
  <path d="M1084.0,517.5 C1102.0,516.5 1120.0,516.9 1138.0,517.5 C1148.4,517.9 1158.7,519.5 1169.0,520.5 C1168.8,526.7 1167.7,532.9 1168.5,539.0 C1168.9,542.6 1170.3,546.1 1172.5,549.0 C1175.6,553.1 1179.4,557.2 1184.0,559.5 C1191.0,563.0 1199.0,563.8 1206.5,566.0 C1206.2,573.3 1204.6,580.7 1205.5,588.0 C1206.0,592.0 1208.3,595.6 1210.5,599.0 C1212.2,601.6 1214.5,603.7 1217.0,605.5 C1220.1,607.6 1223.4,609.5 1227.0,610.5 C1232.8,612.2 1238.9,613.1 1245.0,613.5 C1248.0,613.7 1251.0,612.8 1254.0,612.5 C1254.8,617.0 1254.5,621.9 1256.5,626.0 C1259.3,631.5 1263.2,636.6 1268.0,640.5 C1272.0,643.7 1277.1,645.2 1282.0,646.5 C1286.7,647.7 1291.7,647.5 1296.5,648.0 C1294.8,655.7 1294.5,663.8 1291.5,671.0 C1287.8,680.0 1282.2,688.1 1276.5,696.0 C1273.3,700.4 1269.2,704.0 1265.0,707.5 C1261.0,710.9 1256.8,714.3 1252.0,716.5 C1241.5,721.2 1230.3,724.2 1219.5,728.0 C1229.0,730.8 1238.9,732.7 1248.0,736.5 C1256.1,739.9 1263.9,744.2 1271.0,749.5 C1278.6,755.1 1285.4,761.8 1291.5,769.0 C1296.6,775.1 1300.8,782.0 1304.5,789.0 C1307.8,795.4 1310.6,802.1 1312.5,809.0 C1315.3,819.5 1317.6,830.2 1318.5,841.0 C1319.6,853.6 1319.1,866.3 1318.5,879.0 C1318.1,886.1 1317.2,893.1 1315.5,900.0 C1313.2,909.5 1310.7,919.1 1306.5,928.0 C1301.6,938.3 1295.9,948.3 1288.5,957.0 C1280.9,966.0 1271.9,974.1 1262.0,980.5 C1251.2,987.4 1239.1,992.3 1227.0,996.5 C1218.0,999.6 1208.4,1001.0 1199.0,1002.5 C1192.1,1003.6 1185.0,1004.6 1178.0,1004.5 C1128.0,1003.9 1077.9,1003.4 1028.0,1000.5 C1019.8,1000.0 1011.8,997.3 1004.0,994.5 C999.6,992.9 995.6,990.4 992.0,987.5 C988.0,984.2 984.4,980.3 981.5,976.0 C978.5,971.4 976.2,966.3 974.5,961.0 C972.8,955.8 971.8,950.4 971.5,945.0 C970.8,934.0 970.4,922.9 971.5,912.0 C973.7,890.2 978.9,868.8 981.5,847.0 C984.5,822.1 986.6,797.0 988.5,772.0 C990.6,743.7 992.4,715.4 993.5,687.0 C994.5,661.3 993.5,635.7 994.5,610.0 C994.9,600.3 995.4,590.5 997.5,581.0 C999.4,572.4 1002.0,563.7 1006.5,556.0 C1011.0,548.2 1016.8,540.9 1024.0,535.5 C1032.0,529.5 1041.4,525.4 1051.0,522.5 C1061.7,519.3 1072.9,518.1 1084.0,517.5Z M1134.0,769.5 C1130.7,769.7 1127.7,771.2 1124.5,772.0 C1124.2,793.0 1123.8,814.0 1123.5,835.0 C1126.3,835.8 1129.1,837.1 1132.0,837.5 C1138.3,838.3 1144.7,838.7 1151.0,838.5 C1155.1,838.4 1159.2,837.8 1163.0,836.5 C1168.2,834.8 1173.3,832.4 1178.0,829.5 C1180.6,827.9 1183.0,825.7 1184.5,823.0 C1186.6,819.0 1187.9,814.5 1188.5,810.0 C1188.9,807.0 1188.4,803.9 1187.5,801.0 C1186.3,797.1 1184.6,793.4 1182.5,790.0 C1180.8,787.2 1178.5,784.6 1176.0,782.5 C1172.3,779.4 1168.4,776.5 1164.0,774.5 C1159.6,772.5 1154.8,771.3 1150.0,770.5 C1144.7,769.6 1139.3,769.2 1134.0,769.5Z M1148.0,631.5 C1143.2,631.7 1138.4,632.7 1134.0,634.5 C1131.4,635.6 1128.7,637.5 1127.5,640.0 C1124.4,646.2 1122.5,653.1 1121.5,660.0 C1120.2,668.6 1120.8,677.3 1120.5,686.0 C1123.7,687.8 1126.6,690.1 1130.0,691.5 C1132.8,692.7 1135.9,693.3 1139.0,693.5 C1142.3,693.7 1145.8,693.5 1149.0,692.5 C1152.6,691.4 1156.1,689.9 1159.0,687.5 C1162.5,684.6 1165.3,680.9 1167.5,677.0 C1169.9,672.7 1171.7,667.9 1172.5,663.0 C1173.3,658.1 1173.0,653.0 1172.5,648.0 C1172.3,645.9 1171.9,643.5 1170.5,642.0 C1167.3,638.5 1163.3,635.5 1159.0,633.5 C1155.6,631.9 1151.7,631.4 1148.0,631.5Z" fill="#231f20" fill-rule="evenodd"/>
</svg>
